<svg xmlns="http://www.w3.org/2000/svg" viewBox="0 0 460 460" width="460" height="460" role="img" aria-label="An isometric DNA double helix on a plinth, inside an open cylindrical wall.">
  <g id="arc">
    <polygon points="74,100 74.22,96.75 74.87,93.51 75.95,90.28 77.45,87.08 79.38,83.92 81.73,80.8 84.49,77.73 87.66,74.73 91.22,71.79 95.17,68.93 99.49,66.16 104.18,63.48 109.21,60.9 114.58,58.42 120.28,56.06 126.28,53.82 132.57,51.71 139.13,49.73 145.95,47.89 153,46.19 160.27,44.64 167.74,43.24 175.38,41.99 183.18,40.91 191.11,39.98 199.15,39.22 207.28,38.63 215.48,38.21 223.73,37.95 232,37.87 240.27,37.95 248.52,38.21 256.72,38.63 264.85,39.22 272.89,39.98 280.82,40.91 288.62,41.99 296.26,43.24 303.73,44.64 311,46.19 318.05,47.89 324.87,49.73 331.43,51.71 337.72,53.82 343.72,56.06 349.42,58.42 354.79,60.9 359.82,63.48 364.51,66.16 368.83,68.93 372.78,71.79 376.34,74.73 379.51,77.73 382.27,80.8 384.62,83.92 386.55,87.08 388.05,90.28 389.13,93.51 389.78,96.75 390,100 390,262 389.78,258.75 389.13,255.51 388.05,252.28 386.55,249.08 384.62,245.92 382.27,242.8 379.51,239.73 376.34,236.73 372.78,233.79 368.83,230.93 364.51,228.16 359.82,225.48 354.79,222.9 349.42,220.42 343.72,218.06 337.72,215.82 331.43,213.71 324.87,211.73 318.05,209.89 311,208.19 303.73,206.64 296.26,205.24 288.62,203.99 280.82,202.91 272.89,201.98 264.85,201.22 256.72,200.63 248.52,200.21 240.27,199.95 232,199.87 223.73,199.95 215.48,200.21 207.28,200.63 199.15,201.22 191.11,201.98 183.18,202.91 175.38,203.99 167.74,205.24 160.27,206.64 153,208.19 145.95,209.89 139.13,211.73 132.57,213.71 126.28,215.82 120.28,218.06 114.58,220.42 109.21,222.9 104.18,225.48 99.49,228.16 95.17,230.93 91.22,233.79 87.66,236.73 84.49,239.73 81.73,242.8 79.38,245.92 77.45,249.08 75.95,252.28 74.87,255.51 74.22,258.75 74,262" fill="#e6f8f2"/>
    <polygon points="74.84,132.86 70.68,129.58 66.96,126.22 63.7,122.79 60.9,119.29 58.56,115.75 56.7,112.16 55.33,108.53 54.43,104.88 54.03,101.22 54.11,97.56 54.68,93.9 55.73,90.26 57.27,86.64 59.29,83.07 61.78,79.53 64.73,76.06 68.15,72.65 72.01,69.31 76.32,66.06 81.05,62.91 86.19,59.85 91.73,56.9 97.66,54.08 103.96,51.37 110.6,48.81 117.58,46.38 124.88,44.1 132.46,41.97 140.32,40 148.43,38.19 156.77,36.56 165.32,35.1 174.05,33.81 182.94,32.71 191.96,31.79 201.09,31.06 210.31,30.52 219.58,30.17 228.89,30.01 238.21,30.04 247.51,30.27 256.77,30.68 265.96,31.29 275.06,32.08 284.04,33.06 292.88,34.22 301.55,35.56 310.03,37.08 318.3,38.78 326.33,40.64 334.1,42.66 341.59,44.84 348.78,47.17 355.65,49.65 362.18,52.26 368.36,55 374.16,57.87 379.57,60.86 384.58,63.95 389.16,67.14 393.32,70.42 397.04,73.78 400.3,77.21 403.1,80.71 405.44,84.25 407.3,87.84 408.67,91.47 409.57,95.12 409.97,98.78 409.89,102.44 409.32,106.1 408.27,109.74 406.73,113.36 404.71,116.93 402.22,120.47 399.27,123.94 395.85,127.35 391.99,130.69 374.01,127.24 377.44,124.28 380.47,121.25 383.1,118.17 385.31,115.03 387.1,111.86 388.46,108.65 389.4,105.42 389.9,102.17 389.98,98.92 389.62,95.67 388.82,92.43 387.6,89.21 385.95,86.02 383.88,82.87 381.39,79.77 378.5,76.72 375.2,73.74 371.51,70.83 367.43,68 362.99,65.25 358.18,62.61 353.04,60.06 347.55,57.62 341.76,55.3 335.66,53.11 329.27,51.04 322.63,49.1 315.73,47.31 308.6,45.66 301.26,44.15 293.74,42.8 286.04,41.61 278.19,40.58 270.22,39.71 262.15,39.01 253.99,38.47 245.77,38.1 237.51,37.9 229.24,37.87 220.98,38.02 212.74,38.33 204.56,38.81 196.46,39.46 188.45,40.27 180.56,41.25 172.81,42.39 165.23,43.69 157.82,45.14 150.62,46.74 143.65,48.49 136.91,50.38 130.44,52.4 124.24,54.56 118.34,56.84 112.76,59.24 107.49,61.75 102.57,64.36 98.01,67.07 93.81,69.88 89.99,72.76 86.56,75.72 83.53,78.75 80.9,81.83 78.69,84.97 76.9,88.14 75.54,91.35 74.6,94.58 74.1,97.83 74.02,101.08 74.38,104.33 75.18,107.57 76.4,110.79 78.05,113.98 80.12,117.13 82.61,120.23 85.5,123.28 88.8,126.26 92.49,129.17" fill="#cfeee4"/>
    <polygon points="74.84,132.86 70.68,129.58 66.96,126.22 63.7,122.79 60.9,119.29 58.56,115.75 56.7,112.16 55.33,108.53 54.43,104.88 54.03,101.22 54.03,263.22 54.43,266.88 55.33,270.53 56.7,274.16 58.56,277.75 60.9,281.29 63.7,284.79 66.96,288.22 70.68,291.58 74.84,294.86" fill="#c9ecdf"/>
    <polygon points="410,100 409.76,103.66 409.02,107.32 407.81,110.95 406.11,114.55 403.93,118.12 401.29,121.63 398.18,125.09 394.61,128.47 390.6,131.78 390.6,293.78 394.61,290.47 398.18,287.09 401.29,283.63 403.93,280.12 406.11,276.55 407.81,272.95 409.02,269.32 409.76,265.66 410,262" fill="#c9ecdf"/>
    <polygon points="74.84,132.86 92.49,129.17 92.49,291.17 74.84,294.86" fill="#d8f2ea"/>
    <polygon points="389.16,132.86 371.51,129.17 371.51,291.17 389.16,294.86" fill="#d8f2ea"/>
  </g>
  <g id="plinth">
    <polygon points="336,356 321.87,373.05 321.87,403.05 336,386" fill="#cdd1d5"/>
    <polygon points="321.87,373.05 284.87,383.58 284.87,413.58 321.87,403.05" fill="#cdd1d5"/>
    <polygon points="284.87,383.58 239.13,383.58 239.13,413.58 284.87,413.58" fill="#d8dbdf"/>
    <polygon points="239.13,383.58 202.13,373.05 202.13,403.05 239.13,413.58" fill="#d8dbdf"/>
    <polygon points="202.13,373.05 188,356 188,386 202.13,403.05" fill="#d8dbdf"/>
    <polygon points="284.87,328.42 321.87,338.95 336,356 321.87,373.05 284.87,383.58 239.13,383.58 202.13,373.05 188,356 202.13,338.95 239.13,328.42" fill="#edeff1"/>
  </g>
  <g id="helix">
    <circle cx="253.1" cy="273.31" r="10.5" fill="#d8323a"/>
    <circle cx="253.1" cy="328.09" r="10.5" fill="#2a5fbd"/>
    <circle cx="253.1" cy="108.96" r="10.5" fill="#2a5fbd"/>
    <circle cx="253.1" cy="163.75" r="10.5" fill="#d8323a"/>
    <circle cx="253.1" cy="218.53" r="10.5" fill="#2a5fbd"/>
    <circle cx="280.92" cy="99.15" r="10.5" fill="#2a5fbd"/>
    <circle cx="280.92" cy="153.94" r="10.5" fill="#d8323a"/>
    <circle cx="280.92" cy="208.72" r="10.5" fill="#2a5fbd"/>
    <circle cx="280.92" cy="263.5" r="10.5" fill="#d8323a"/>
    <circle cx="280.92" cy="318.28" r="10.5" fill="#2a5fbd"/>
    <circle cx="227.15" cy="341.32" r="10.5" fill="#2a5fbd"/>
    <circle cx="227.15" cy="231.76" r="10.5" fill="#2a5fbd"/>
    <circle cx="227.15" cy="286.54" r="10.5" fill="#d8323a"/>
    <circle cx="227.15" cy="176.98" r="10.5" fill="#d8323a"/>
    <circle cx="227.15" cy="122.19" r="10.5" fill="#2a5fbd"/>
    <circle cx="299.99" cy="92.32" r="10.5" fill="#2a5fbd"/>
    <circle cx="299.99" cy="147.11" r="10.5" fill="#d8323a"/>
    <circle cx="299.99" cy="201.89" r="10.5" fill="#2a5fbd"/>
    <circle cx="299.99" cy="256.67" r="10.5" fill="#d8323a"/>
    <circle cx="299.99" cy="311.45" r="10.5" fill="#2a5fbd"/>
    <circle cx="212.99" cy="302.32" r="10.5" fill="#d8323a"/>
    <circle cx="212.99" cy="247.54" r="10.5" fill="#2a5fbd"/>
    <circle cx="212.99" cy="192.75" r="10.5" fill="#d8323a"/>
    <circle cx="212.99" cy="137.97" r="10.5" fill="#2a5fbd"/>
    <path d="M216.01,99.68L299.99,92.32M216.01,104.08L299.99,96.72" stroke="#141414" stroke-width="2" stroke-linecap="round" fill="none"/>
    <path d="M303.01,141.68L212.99,137.97M303.01,146.08L212.99,142.37" stroke="#141414" stroke-width="2" stroke-linecap="round" fill="none"/>
    <path d="M280.92,153.94L235.08,169.54M280.92,158.34L235.08,173.94" stroke="#141414" stroke-width="2" stroke-linecap="round" fill="none"/>
    <path d="M227.15,176.98L288.85,190.33M227.15,181.38L288.85,194.73" stroke="#141414" stroke-width="2" stroke-linecap="round" fill="none"/>
    <path d="M216.01,209.24L299.99,201.89M216.01,213.64L299.99,206.29" stroke="#141414" stroke-width="2" stroke-linecap="round" fill="none"/>
    <path d="M303.01,251.25L212.99,247.54M303.01,255.65L212.99,251.94" stroke="#141414" stroke-width="2" stroke-linecap="round" fill="none"/>
    <path d="M280.92,263.5L235.08,279.11M280.92,267.9L235.08,283.51" stroke="#141414" stroke-width="2" stroke-linecap="round" fill="none"/>
    <path d="M227.15,286.54L288.85,299.89M227.15,290.94L288.85,304.29" stroke="#141414" stroke-width="2" stroke-linecap="round" fill="none"/>
    <path d="M216.01,318.81L299.99,311.45M216.01,323.21L299.99,315.85" stroke="#141414" stroke-width="2" stroke-linecap="round" fill="none"/>
    <circle cx="303.01" cy="141.68" r="10.5" fill="#ee3b42"/>
    <circle cx="303.01" cy="196.46" r="10.5" fill="#2f6fd8"/>
    <circle cx="303.01" cy="251.25" r="10.5" fill="#ee3b42"/>
    <circle cx="303.01" cy="306.03" r="10.5" fill="#2f6fd8"/>
    <circle cx="216.01" cy="318.81" r="10.5" fill="#ee3b42"/>
    <circle cx="216.01" cy="264.02" r="10.5" fill="#2f6fd8"/>
    <circle cx="216.01" cy="209.24" r="10.5" fill="#ee3b42"/>
    <circle cx="216.01" cy="154.46" r="10.5" fill="#2f6fd8"/>
    <circle cx="216.01" cy="99.68" r="10.5" fill="#ee3b42"/>
    <circle cx="288.85" cy="135.55" r="10.5" fill="#ee3b42"/>
    <circle cx="288.85" cy="190.33" r="10.5" fill="#2f6fd8"/>
    <circle cx="288.85" cy="245.11" r="10.5" fill="#ee3b42"/>
    <circle cx="288.85" cy="299.89" r="10.5" fill="#2f6fd8"/>
    <circle cx="288.85" cy="354.68" r="10.5" fill="#ee3b42"/>
    <circle cx="235.08" cy="279.11" r="10.5" fill="#2f6fd8"/>
    <circle cx="235.08" cy="333.89" r="10.5" fill="#ee3b42"/>
    <circle cx="235.08" cy="169.54" r="10.5" fill="#2f6fd8"/>
    <circle cx="235.08" cy="224.32" r="10.5" fill="#ee3b42"/>
    <circle cx="235.08" cy="114.76" r="10.5" fill="#ee3b42"/>
    <circle cx="262.9" cy="126.86" r="10.5" fill="#ee3b42"/>
    <circle cx="262.9" cy="181.64" r="10.5" fill="#2f6fd8"/>
    <circle cx="262.9" cy="236.43" r="10.5" fill="#ee3b42"/>
    <circle cx="262.9" cy="291.21" r="10.5" fill="#2f6fd8"/>
    <circle cx="262.9" cy="345.99" r="10.5" fill="#ee3b42"/>
  </g>
</svg>
